<svg width="27" height="22" viewBox="0 0 27 22" fill="none" xmlns="http://www.w3.org/2000/svg">
<path d="M12.5416 20.3244C12.5416 21.1437 11.8978 21.8079 11.1037 21.8079C10.3095 21.8079 9.66578 21.1437 9.66578 20.3244C9.66578 19.5051 10.3095 18.8409 11.1037 18.8409C11.8978 18.8409 12.5416 19.5051 12.5416 20.3244Z" fill="#EB804E"/>
<path d="M22.1275 20.3244C22.1275 21.1437 21.4837 21.8079 20.6896 21.8079C19.8955 21.8079 19.2517 21.1437 19.2517 20.3244C19.2517 19.5051 19.8955 18.8409 20.6896 18.8409C21.4837 18.8409 22.1275 19.5051 22.1275 20.3244Z" fill="#EB804E"/>
<path fill-rule="evenodd" clip-rule="evenodd" d="M0 1.03847C0 0.464941 0.464941 0 1.03847 0H2.78464C4.47491 0 5.95354 1.107 6.47643 2.71431L6.54358 2.92071H23.1101C25.6406 2.92071 27.4521 5.31676 26.9007 7.76482L25.3658 14.5798C24.9643 16.3627 23.4045 17.6541 21.5752 17.6541H10.9076C9.07828 17.6541 7.51848 16.3627 7.11692 14.5798L4.7869 4.2345L4.50138 3.35684C4.24827 2.57885 3.54829 2.07695 2.78464 2.07695H1.03847C0.464941 2.07695 0 1.61201 0 1.03847ZM17.6541 7.26932C17.6541 6.69579 18.119 6.23085 18.6925 6.23085H21.808C22.3815 6.23085 22.8464 6.69579 22.8464 7.26932C22.8464 7.84285 22.3815 8.30779 21.808 8.30779H18.6925C18.119 8.30779 17.6541 7.84285 17.6541 7.26932Z" fill="#EB804E"/>
</svg>
