<svg width="29" height="19" viewBox="0 0 29 19" fill="none" xmlns="http://www.w3.org/2000/svg">
<path d="M1 0C0.447715 0 0 0.447715 0 1C0 1.55228 0.447715 2 1 2V0ZM5.82124 3.1635L4.8703 3.47286L5.82124 3.1635ZM8.68241 15.4224L9.65798 15.2027L8.68241 15.4224ZM26.2568 15.4224L27.2323 15.6421L26.2568 15.4224ZM27.9196 8.03959L26.944 7.81987L27.9196 8.03959ZM23.5 8.75C24.0523 8.75 24.5 8.30228 24.5 7.75C24.5 7.19772 24.0523 6.75 23.5 6.75V8.75ZM20.125 6.75C19.5727 6.75 19.125 7.19772 19.125 7.75C19.125 8.30228 19.5727 8.75 20.125 8.75V6.75ZM6.14675 5.16406H24.9106V3.16406H6.14675V5.16406ZM26.944 7.81987L25.2812 15.2027L27.2323 15.6421L28.8951 8.25932L26.944 7.81987ZM23.2478 16.875H11.6914V18.875H23.2478V16.875ZM9.65798 15.2027L7.12231 3.94434L5.17119 4.38378L7.70685 15.6421L9.65798 15.2027ZM7.09769 3.8547L6.77218 2.85413L4.8703 3.47286L5.19581 4.47343L7.09769 3.8547ZM2.89166 0H1V2H2.89166V0ZM6.77218 2.85413C6.22196 1.16282 4.667 0 2.89166 0V2C3.7747 2 4.57987 2.58014 4.8703 3.47286L6.77218 2.85413ZM11.6914 16.875C10.7367 16.875 9.88206 16.1976 9.65798 15.2027L7.70685 15.6421C8.12945 17.5185 9.77009 18.875 11.6914 18.875V16.875ZM25.2812 15.2027C25.0571 16.1976 24.2025 16.875 23.2478 16.875V18.875C25.1691 18.875 26.8097 17.5185 27.2323 15.6421L25.2812 15.2027ZM24.9106 5.16406C26.2249 5.16406 27.2566 6.43222 26.944 7.81987L28.8951 8.25932C29.4757 5.68167 27.5681 3.16406 24.9106 3.16406V5.16406ZM23.5 6.75H20.125V8.75H23.5V6.75Z" fill="#919191"/>
</svg>
