<svg width="24" height="24" viewBox="0 0 24 24" fill="none" xmlns="http://www.w3.org/2000/svg">
<path d="M24 16V21C24 21.7957 23.6839 22.5587 23.1213 23.1213C22.5587 23.6839 21.7956 24 21 24H16C15.2044 24 14.4413 23.6839 13.8787 23.1213C13.3161 22.5587 13 21.7957 13 21V16C13 15.2044 13.3161 14.4413 13.8787 13.8787C14.4413 13.3161 15.2044 13 16 13H21C21.7956 13 22.5587 13.3161 23.1213 13.8787C23.6839 14.4413 24 15.2044 24 16ZM8 2.48957e-06H3C2.20435 2.48957e-06 1.44129 0.316073 0.87868 0.878682C0.316071 1.44129 0 2.20435 0 3V8C0 8.79565 0.316071 9.55871 0.87868 10.1213C1.44129 10.6839 2.20435 11 3 11H8C8.79565 11 9.55871 10.6839 10.1213 10.1213C10.6839 9.55871 11 8.79565 11 8V3C11 2.20435 10.6839 1.44129 10.1213 0.878682C9.55871 0.316073 8.79565 2.48957e-06 8 2.48957e-06ZM18.5 11C19.5878 11 20.6512 10.6774 21.5556 10.0731C22.4601 9.46874 23.1651 8.60976 23.5813 7.60476C23.9976 6.59977 24.1065 5.4939 23.8943 4.42701C23.6821 3.36011 23.1583 2.3801 22.3891 1.61092C21.6199 0.841726 20.6399 0.317902 19.573 0.105683C18.5061 -0.106535 17.4002 0.00238308 16.3952 0.418665C15.3902 0.834947 14.5313 1.5399 13.9269 2.44437C13.3226 3.34884 13 4.41221 13 5.5C13.0026 6.95788 13.583 8.35529 14.6138 9.38617C15.6447 10.417 17.0421 10.9974 18.5 11ZM8 13H3C2.20435 13 1.44129 13.3161 0.87868 13.8787C0.316071 14.4413 0 15.2044 0 16V21C0 21.7957 0.316071 22.5587 0.87868 23.1213C1.44129 23.6839 2.20435 24 3 24H8C8.79565 24 9.55871 23.6839 10.1213 23.1213C10.6839 22.5587 11 21.7957 11 21V16C11 15.2044 10.6839 14.4413 10.1213 13.8787C9.55871 13.3161 8.79565 13 8 13Z" fill="#EB804E"/>
</svg>
