<svg width="18" height="21" viewBox="0 0 18 21" fill="none" xmlns="http://www.w3.org/2000/svg">
<path d="M15.1998 19.6C15.1998 20.1523 15.6475 20.6 16.1998 20.6C16.7521 20.6 17.1998 20.1523 17.1998 19.6H15.1998ZM0.799805 19.6C0.799805 20.1523 1.24752 20.6 1.7998 20.6C2.35209 20.6 2.7998 20.1523 2.7998 19.6H0.799805ZM13.3998 6.72001C13.3998 9.23717 11.4093 11.24 8.9998 11.24V13.24C12.555 13.24 15.3998 10.3001 15.3998 6.72001H13.3998ZM8.9998 11.24C6.59036 11.24 4.5998 9.23717 4.5998 6.72001H2.5998C2.5998 10.3001 5.44458 13.24 8.9998 13.24V11.24ZM4.5998 6.72001C4.5998 4.20285 6.59036 2.20001 8.9998 2.20001V0.200012C5.44458 0.200012 2.5998 3.13995 2.5998 6.72001H4.5998ZM8.9998 2.20001C11.4093 2.20001 13.3998 4.20285 13.3998 6.72001H15.3998C15.3998 3.13995 12.555 0.200012 8.9998 0.200012V2.20001ZM2.7998 19.6C2.7998 18.5682 2.80134 17.6673 2.90424 16.8619C3.0061 16.0647 3.19908 15.4429 3.52837 14.9556C4.14263 14.0466 5.50139 13.24 8.9998 13.24V11.24C5.29822 11.24 3.05698 12.081 1.87124 13.8358C1.30053 14.6804 1.04351 15.6446 0.920368 16.6084C0.798265 17.5641 0.799805 18.5994 0.799805 19.6H2.7998ZM8.97759 13.2398C12.4876 13.3178 13.8574 14.1209 14.4752 15.0214C14.8025 15.4985 14.9942 16.1041 15.0956 16.8862C15.1982 17.6779 15.1998 18.5677 15.1998 19.6H17.1998C17.1998 18.6 17.2014 17.5735 17.079 16.6291C16.9554 15.6751 16.6971 14.7248 16.1244 13.89C14.9422 12.1667 12.712 11.3223 9.02202 11.2403L8.97759 13.2398Z" fill="#4B494A"/>
</svg>
