<svg width="28" height="24" viewBox="0 0 28 24" fill="none" xmlns="http://www.w3.org/2000/svg">
<path d="M14.1332 23.7333C13.4665 23.7333 12.6665 23.4667 12.1332 22.9333C3.4665 15.3333 3.33317 15.2 3.33317 15.0667L3.19983 14.9333C1.59983 13.3333 0.666504 11.0667 0.666504 8.8V8.53333C0.799837 3.73333 4.6665 0 9.4665 0C10.9332 0 12.9332 0.8 14.1332 2.4C15.3332 0.8 17.4665 0 18.9332 0C23.7332 0 27.4665 3.73333 27.7332 8.53333V8.8C27.7332 11.2 26.7998 13.3333 25.1998 15.0667L25.0665 15.2C24.9332 15.3333 23.8665 16.2667 16.2665 23.0667C15.5998 23.4667 14.9332 23.7333 14.1332 23.7333ZM5.33317 14.6667C5.8665 15.2 8.53317 17.0667 13.4665 21.3333C13.8665 21.7333 14.3998 21.7333 14.7998 21.3333C19.8665 16.8 22.7998 14.2667 23.4665 13.7333L23.5998 13.6C24.9332 12.2667 25.5998 10.5333 25.5998 8.8V8.53333C25.4665 4.8 22.5332 2 18.7998 2C17.8665 2 15.9998 2.66667 15.3332 4.13333C15.0665 4.66667 14.5332 4.93333 13.9998 4.93333C13.4665 4.93333 12.9332 4.66667 12.6665 4.13333C11.9998 2.8 10.2665 2 9.19983 2C5.59983 2 2.53317 4.93333 2.39984 8.53333V8.93333C2.39984 10.6667 3.19984 12.4 4.39984 13.6L5.33317 14.6667Z" fill="#919191"/>
</svg>
