<svg width="20" height="20" viewBox="0 0 20 20" fill="none" xmlns="http://www.w3.org/2000/svg">
<g clip-path="url(#clip0_1_133)">
<path d="M5.67676 11.6142H7.77509V19.3742C7.77509 19.7192 8.05426 19.9992 8.40009 19.9992L11.7393 20C12.0851 20 12.3643 19.7192 12.3643 19.375V11.615H14.3534C14.6684 11.615 14.9343 11.38 14.9734 11.0675L15.3884 7.73417C15.4351 7.3625 15.1443 7.03167 14.7684 7.03167H12.3643C12.4584 4.9725 12.0018 4.36333 13.3409 4.36333C14.2476 4.255 15.6776 4.71417 15.6776 3.73833V0.7575C15.6776 0.445 15.4468 0.180833 15.1376 0.138333C14.8759 0.1025 13.8418 0 12.5593 0C6.71759 0 7.92009 6.47667 7.77592 7.03083H5.67676C5.33176 7.03083 5.05176 7.31083 5.05176 7.65583V10.9892C5.05176 11.3342 5.33176 11.6142 5.67676 11.6142ZM6.30176 8.28167H8.40009C8.74509 8.28167 9.02509 8.00167 9.02509 7.65667V5.03083C9.02509 2.62833 10.3126 1.25083 12.5584 1.25083C13.2901 1.25083 13.9634 1.28667 14.4268 1.32333V3.11417C14.0918 3.285 11.1134 2.3775 11.1134 5.36167V7.6575C11.1134 8.0025 11.3934 8.2825 11.7384 8.2825H14.0601L13.8001 10.3658H11.7384C11.3934 10.3658 11.1134 10.6458 11.1134 10.9908V18.75H9.02592V10.99C9.02592 10.645 8.74592 10.365 8.40092 10.365H6.30176V8.28167Z" fill="white"/>
</g>
<defs>
<clipPath id="clip0_1_133">
<rect width="20" height="20" fill="white"/>
</clipPath>
</defs>
</svg>
