<svg width="50" height="32" viewBox="0 0 50 32" fill="none" xmlns="http://www.w3.org/2000/svg">
<path d="M12.9278 23.3004C12.0305 23.3024 11.1575 23.5939 10.4395 24.132C9.72108 24.6701 9.19594 25.4255 8.94237 26.2864H6.23486V28.4294H8.88497V28.4289C9.12761 29.4493 9.74693 30.3406 10.6179 30.924C11.4893 31.508 12.5491 31.7417 13.5849 31.5782C14.6208 31.4148 15.557 30.8663 16.2062 30.0427C16.8559 29.2191 17.1703 28.1807 17.0871 27.1354C17.0044 26.0896 16.5301 25.114 15.7588 24.403C14.9875 23.6921 13.9765 23.2984 12.9278 23.3004H12.9278ZM12.9278 29.4861C12.3922 29.4841 11.879 29.2699 11.5013 28.8897C11.1236 28.51 10.9123 27.9959 10.9133 27.4597C10.9148 26.9241 11.1286 26.4109 11.5082 26.0327C11.8874 25.6546 12.4016 25.4428 12.9372 25.4433C13.4728 25.4438 13.9865 25.657 14.3651 26.0362C14.7438 26.4154 14.9565 26.929 14.9565 27.4646C14.9565 28.0022 14.7423 28.5174 14.3616 28.8966C13.981 29.2758 13.4653 29.488 12.9277 29.486L12.9278 29.4861Z" fill="#EB804E"/>
<path d="M41.7209 4.55698H30.7851C30.7606 3.34127 30.2614 2.1834 29.3935 1.33137C28.5256 0.479869 27.3587 0.0015306 26.1425 0H4.99983C3.67395 0 2.40202 0.52664 1.46427 1.46427C0.526576 2.40197 0 3.67395 0 4.99983V28.5711H2.14297V4.99983C2.14297 4.242 2.44391 3.51553 2.97951 2.97944C3.51562 2.44383 4.24205 2.14289 4.99991 2.14289H26.1426C26.8057 2.14289 27.4415 2.40646 27.9103 2.87531C28.3791 3.34366 28.6422 3.97991 28.6422 4.64251V6.69976H41.7212C42.6085 6.71222 43.4237 7.19303 43.8636 7.96431L47.1426 13.6711H33.2715C32.6093 13.6692 31.9741 13.4056 31.5057 12.9367C31.0374 12.4684 30.7733 11.8336 30.7713 11.1714V10.8142H28.6283V11.1356H28.6288C28.6303 12.3662 29.1201 13.546 29.9906 14.4165C30.861 15.2871 32.0408 15.7767 33.2715 15.7783H47.8568V23.5353C47.8568 24.2932 47.5559 25.0201 47.0203 25.5557C46.4842 26.0913 45.7578 26.3928 44.9999 26.3928H44.8499C44.5306 25.205 43.702 24.2189 42.5875 23.6993C41.4724 23.1796 40.1844 23.1796 39.0699 23.6993C37.9548 24.219 37.1268 25.205 36.8069 26.3928H21.307V28.5357L36.8286 28.5352C37.1485 29.7235 37.9765 30.7091 39.0916 31.2287C40.2061 31.7484 41.4941 31.7484 42.6091 31.2287C43.7237 30.709 44.5522 29.7235 44.8716 28.5352H45.0002C46.326 28.5352 47.598 28.0086 48.5357 27.071C49.4734 26.1333 50 24.8618 50 23.5354V14.4211L45.7141 6.90711C44.896 5.46924 43.3758 4.57435 41.7216 4.55687L41.7209 4.55698ZM40.8495 29.4853C40.3124 29.4893 39.7962 29.2791 39.4141 28.9019C39.0324 28.5242 38.8162 28.0105 38.8137 27.4735C38.8112 26.9369 39.0224 26.4207 39.4006 26.0401C39.7788 25.6589 40.2935 25.4442 40.8301 25.4427C41.3672 25.4412 41.8824 25.6539 42.2625 26.0331C42.6426 26.4122 42.8564 26.9269 42.8564 27.4641C42.8564 27.9977 42.6456 28.5099 42.2694 28.8885C41.8933 29.2672 41.3831 29.4819 40.8494 29.4854L40.8495 29.4853Z" fill="#EB804E"/>
</svg>
