<svg width="50" height="50" viewBox="0 0 50 50" fill="none" xmlns="http://www.w3.org/2000/svg">
<path d="M26.0417 18.8333V17.7081C26.0417 17.133 25.5751 16.6667 24.9999 16.6667C24.4248 16.6667 23.9582 17.133 23.9582 17.7081V18.8333C19.2811 19.5207 15.625 24.8227 15.625 31.2501C15.625 31.8253 16.0913 32.2919 16.6668 32.2919C17.2419 32.2919 17.7082 31.8253 17.7082 31.2501C17.7082 26.042 20.4268 21.6779 23.9582 20.9484V29.1672C23.9582 29.7423 24.4248 30.2086 24.9999 30.2086C25.5751 30.2086 26.0417 29.7423 26.0417 29.1672V20.9484C29.573 21.6777 32.2917 26.0108 32.2917 31.2501C32.2917 31.8253 32.758 32.2919 33.3331 32.2919C33.9086 32.2919 34.3749 31.8253 34.3749 31.2501C34.3749 24.823 30.7187 19.5208 26.0417 18.8333Z" fill="#EB804E"/>
<path d="M25 44.792C19.751 44.792 14.717 42.7067 11.0054 38.9951C7.29384 35.2835 5.2085 30.2493 5.2085 25.0005C5.2085 19.7517 7.29375 14.7176 11.0054 11.006C14.717 7.29441 19.7512 5.20907 25 5.20907C30.2488 5.20907 35.2829 7.29432 38.9945 11.006C42.7061 14.7176 44.7914 19.7517 44.7914 25.0005C44.7914 30.2493 42.7062 35.2835 38.9945 38.9951C35.2829 42.7067 30.2488 44.792 25 44.792ZM25 7.29227C20.3034 7.29227 15.7991 9.15788 12.4786 12.4788C9.15766 15.7998 7.29205 20.3039 7.29205 25.0002C7.29205 29.6965 9.15766 34.201 12.4786 37.5215C15.7996 40.8425 20.3037 42.7081 25 42.7081C29.6963 42.7081 34.2008 40.8425 37.5213 37.5215C40.8423 34.2006 42.7079 29.6965 42.7079 25.0002C42.7079 20.3039 40.8423 15.7993 37.5213 12.4788C34.2003 9.15788 29.6963 7.29227 25 7.29227Z" fill="#EB804E"/>
<path d="M25 50C18.3695 50 12.0108 47.3661 7.32245 42.6776C2.63391 37.9894 0 31.6303 0 25C0 18.3697 2.63391 12.0108 7.32245 7.32245C12.0106 2.63391 18.3697 0 25 0C31.6303 0 37.9892 2.63391 42.6776 7.32245C47.3661 12.0106 50 18.3697 50 25C50 31.6303 47.3661 37.9892 42.6776 42.6776C37.9894 47.3661 31.6303 50 25 50ZM25 2.08338C18.9224 2.08338 13.0929 4.49791 8.79565 8.79547C4.49809 13.0934 2.08356 18.9222 2.08356 24.9998C2.08356 31.0775 4.49809 36.9069 8.79565 41.2042C13.0936 45.5017 18.9224 47.9163 25 47.9163C31.0776 47.9163 36.9071 45.5017 41.2043 41.2042C45.5019 36.9063 47.9164 31.0775 47.9164 24.9998C47.9164 18.9222 45.5019 13.0928 41.2043 8.79547C36.9064 4.49791 31.0776 2.08338 25 2.08338Z" fill="#EB804E"/>
<path d="M25 44.792C19.751 44.792 14.717 42.7067 11.0054 38.9951C7.29384 35.2835 5.2085 30.2493 5.2085 25.0005C5.2085 19.7517 7.29375 14.7176 11.0054 11.006C14.717 7.29441 19.7512 5.20907 25 5.20907C30.2488 5.20907 35.2829 7.29432 38.9945 11.006C42.7061 14.7176 44.7914 19.7517 44.7914 25.0005C44.7914 30.2493 42.7062 35.2835 38.9945 38.9951C35.2829 42.7067 30.2488 44.792 25 44.792ZM25 7.29227C20.3034 7.29227 15.7991 9.15788 12.4786 12.4788C9.15766 15.7998 7.29205 20.3039 7.29205 25.0002C7.29205 29.6965 9.15766 34.201 12.4786 37.5215C15.7996 40.8425 20.3037 42.7081 25 42.7081C29.6963 42.7081 34.2008 40.8425 37.5213 37.5215C40.8423 34.2006 42.7079 29.6965 42.7079 25.0002C42.7079 20.3039 40.8423 15.7993 37.5213 12.4788C34.2003 9.15788 29.6963 7.29227 25 7.29227Z" fill="#EB804E"/>
<path d="M25 50C18.3695 50 12.0108 47.3661 7.32245 42.6776C2.63391 37.9894 0 31.6303 0 25C0 18.3697 2.63391 12.0108 7.32245 7.32245C12.0106 2.63391 18.3697 0 25 0C31.6303 0 37.9892 2.63391 42.6776 7.32245C47.3661 12.0106 50 18.3697 50 25C50 31.6303 47.3661 37.9892 42.6776 42.6776C37.9894 47.3661 31.6303 50 25 50ZM25 2.08338C18.9224 2.08338 13.0929 4.49791 8.79565 8.79547C4.49809 13.0934 2.08356 18.9222 2.08356 24.9998C2.08356 31.0775 4.49809 36.9069 8.79565 41.2042C13.0936 45.5017 18.9224 47.9163 25 47.9163C31.0776 47.9163 36.9071 45.5017 41.2043 41.2042C45.5019 36.9063 47.9164 31.0775 47.9164 24.9998C47.9164 18.9222 45.5019 13.0928 41.2043 8.79547C36.9064 4.49791 31.0776 2.08338 25 2.08338Z" fill="#EB804E"/>
</svg>
