<svg width="88" height="62" viewBox="0 0 88 62" fill="none" xmlns="http://www.w3.org/2000/svg">
<path d="M3.38778 50.9297C2.35557 50.3578 1.49928 49.5148 0.91146 48.4916C0.30382 47.4488 0 46.2747 0 44.9692C0 43.6637 0.30382 42.4926 0.91146 41.456C1.50137 40.437 2.35737 39.5977 3.38778 39.0279C4.44248 38.4548 5.62375 38.1547 6.82407 38.1547C8.02439 38.1547 9.20565 38.4548 10.2604 39.0279C11.289 39.5965 12.1421 40.4363 12.7268 41.456C13.3283 42.4931 13.629 43.6641 13.629 44.9692C13.629 46.2742 13.3283 47.4484 12.7268 48.4916C12.1449 49.5151 11.2925 50.3586 10.263 50.9297C9.20829 51.5027 8.02703 51.8029 6.82671 51.8029C5.62639 51.8029 4.44513 51.5027 3.39042 50.9297H3.38778ZM9.17532 49.2975C9.87092 48.8897 10.4342 48.29 10.7976 47.5703C11.1874 46.8223 11.3826 45.9552 11.383 44.9692C11.3835 43.9831 11.1883 43.1192 10.7976 42.3774C10.4334 41.6631 9.86985 41.0698 9.17532 40.6693C8.48452 40.2733 7.69758 40.0753 6.8145 40.0753C5.93142 40.0753 5.14426 40.2733 4.45302 40.6693C3.75852 41.0697 3.19518 41.663 2.8314 42.3774C2.44068 43.1201 2.24554 43.984 2.24598 44.9692C2.24642 45.9543 2.44156 46.8214 2.8314 47.5703C3.19489 48.2904 3.75869 48.8902 4.455 49.2975C5.1458 49.7005 5.93296 49.9023 6.81648 49.9027C7.7 49.9031 8.48628 49.7014 9.17532 49.2975Z" fill="#4C4A4A"/>
<path d="M20.2131 42.8763H18.2549V51.6681H16.0479V42.8763H14.7998V41.0943H16.0479V40.3452C16.0479 39.1295 16.3708 38.2433 17.0167 37.6867C17.6627 37.1301 18.6769 36.8518 20.0593 36.8518V38.6754C19.3941 38.6754 18.927 38.8001 18.6582 39.0496C18.3893 39.2991 18.2549 39.7309 18.2549 40.3452V41.0943H20.2131V42.8763Z" fill="#4C4A4A"/>
<path d="M26.5862 42.8763H24.6279V51.6681H22.4203V42.8763H21.1729V41.0943H22.4203V40.3452C22.4203 39.1295 22.7434 38.2433 23.3898 37.6867C24.0361 37.1301 25.0503 36.8518 26.4324 36.8518V38.6754C25.7671 38.6754 25.3 38.8001 25.0312 39.0496C24.7624 39.2991 24.6279 39.7309 24.6279 40.3452V41.0943H26.5862V42.8763Z" fill="#4C4A4A"/>
<path d="M28.6395 39.2872C28.4407 39.0911 28.305 38.8401 28.2498 38.5663C28.1946 38.2925 28.2225 38.0085 28.3298 37.7507C28.437 37.4928 28.6189 37.2729 28.852 37.1191C29.0851 36.9653 29.3589 36.8847 29.6381 36.8875C29.8202 36.8843 30.0009 36.9184 30.1693 36.9878C30.3376 37.0571 30.4899 37.1602 30.6169 37.2907C30.8755 37.5587 31.0201 37.9166 31.0201 38.289C31.0201 38.6614 30.8755 39.0193 30.6169 39.2872C30.4899 39.4176 30.3375 39.5206 30.1692 39.5898C30.0008 39.6591 29.8201 39.6931 29.6381 39.6898C29.453 39.6944 29.2689 39.661 29.0972 39.5918C28.9255 39.5225 28.7697 39.4189 28.6395 39.2872ZM30.7133 41.0917V51.6682H28.5247V41.0917H30.7133Z" fill="#4C4A4A"/>
<path d="M33.5247 43.5007C33.9407 42.7018 34.577 42.0389 35.3582 41.5906C36.1401 41.1423 37.037 40.9194 38.049 40.9221C39.3281 40.9221 40.387 41.2259 41.2256 41.8335C42.0643 42.4412 42.6305 43.3082 42.9245 44.4346H40.5603C40.3892 43.9382 40.0659 43.5083 39.6363 43.2063C39.2139 42.9119 38.6829 42.7648 38.0431 42.7648C37.1468 42.7648 36.4334 43.0816 35.9027 43.7152C35.3721 44.3488 35.1065 45.2349 35.1061 46.3736C35.1061 47.5128 35.3716 48.4023 35.9027 49.042C36.4338 49.6818 37.1492 50.0006 38.049 49.9984C39.3154 49.9984 40.1536 49.4418 40.5636 48.3286H42.9245C42.6165 49.403 42.0407 50.2571 41.1972 50.8907C40.3538 51.5243 39.3044 51.8411 38.049 51.8411C37.037 51.8411 36.1412 51.614 35.3615 51.16C34.5796 50.7062 33.9427 50.0397 33.5247 49.238C33.0847 48.4122 32.8647 47.4556 32.8647 46.3684C32.8647 45.2811 33.0847 44.3252 33.5247 43.5007Z" fill="#4C4A4A"/>
<path d="M54.7265 47.196H46.6448C46.7091 48.0399 47.0228 48.7182 47.586 49.2308C48.1492 49.7434 48.8402 49.9992 49.6591 49.9984C50.8356 49.9984 51.6674 49.5056 52.1545 48.52H54.5153C54.2042 49.4806 53.5959 50.3174 52.7782 50.9098C51.94 51.5311 50.9003 51.8415 49.6591 51.8411C48.6471 51.8411 47.7415 51.614 46.9425 51.16C46.1469 50.7102 45.4948 50.0446 45.0615 49.24C44.6074 48.4141 44.3804 47.4576 44.3804 46.3703C44.3804 45.2831 44.6004 44.3265 45.0404 43.5007C45.4615 42.6961 46.1087 42.0321 46.9022 41.5906C47.7022 41.1423 48.6204 40.9183 49.6571 40.9187C50.655 40.9187 51.5445 41.1363 52.3255 41.5715C53.0954 41.9964 53.728 42.6323 54.149 43.4043C54.5838 44.1919 54.8013 45.0974 54.8018 46.1209C54.8048 46.4807 54.7797 46.8401 54.7265 47.196ZM52.5188 45.4298C52.5061 44.6233 52.2183 43.977 51.6556 43.4908C51.0928 43.0046 50.3952 42.7615 49.5627 42.7615C48.8077 42.7615 48.1615 43.0015 47.6243 43.4815C47.087 43.9616 46.7672 44.611 46.6646 45.4298H52.5188Z" fill="#4C4A4A"/>
<path d="M60.6582 41.4177C61.2984 41.0851 62.0215 40.9187 62.8276 40.9187C63.717 40.9077 64.5919 41.1442 65.3546 41.6018C66.1174 42.0593 66.7378 42.72 67.1467 43.5099C67.5818 44.3287 67.7994 45.2695 67.7994 46.3321C67.7994 47.3947 67.5818 48.3448 67.1467 49.1826C66.7411 49.9888 66.1196 50.6665 65.3515 51.1402C64.5931 51.607 63.7181 51.85 62.8276 51.8411C62.0211 51.8411 61.3043 51.6778 60.6773 51.3514C60.0873 51.0551 59.5647 50.6404 59.1422 50.133V54.8065H56.9536V41.0917H59.1422V42.646C59.5122 42.1602 60.0176 41.7508 60.6582 41.4177ZM65.1211 44.4412C64.8456 43.9352 64.4341 43.5164 63.9331 43.232C63.4499 42.9592 62.904 42.8168 62.3491 42.8189C61.7993 42.8188 61.2593 42.9646 60.7842 43.2413C60.2825 43.5333 59.8714 43.9584 59.5962 44.4695C59.2953 45.0077 59.145 45.6413 59.1455 46.3703C59.1459 47.0994 59.2962 47.7361 59.5962 48.2804C59.8613 48.7813 60.2578 49.2005 60.7432 49.4931C61.2285 49.7856 61.7844 49.9405 62.3511 49.9409C62.9085 49.9427 63.4559 49.7933 63.9351 49.5086C64.4392 49.2083 64.8504 48.7743 65.1231 48.2546C65.424 47.7051 65.5745 47.0653 65.5745 46.3354C65.5745 45.6054 65.4234 44.974 65.1211 44.4412Z" fill="#4C4A4A"/>
<path d="M73.4327 41.3695C73.9634 41.069 74.5937 40.9187 75.3237 40.9187V43.1839H74.7666C73.909 43.1839 73.2596 43.4014 72.8183 43.8366C72.377 44.2718 72.157 45.0268 72.1583 46.1017V51.6681H69.9697V41.0917H72.1583V42.6268C72.4644 42.1023 72.9042 41.6685 73.4327 41.3695Z" fill="#4C4A4A"/>
<path d="M79.2204 51.16C78.4186 50.7107 77.7596 50.0446 77.3189 49.238C76.8583 48.4122 76.6279 47.4556 76.6279 46.3684C76.6279 45.2934 76.8647 44.34 77.3381 43.5079C77.7902 42.6978 78.4625 42.0324 79.2772 41.5886C80.096 41.1403 81.011 40.9163 82.0221 40.9167C83.0332 40.9172 83.9482 41.1411 84.7671 41.5886C85.5817 42.0324 86.254 42.6978 86.7061 43.5079C87.1796 44.34 87.4163 45.2934 87.4163 46.3684C87.4163 47.4433 87.1743 48.3968 86.6903 49.2288C86.2205 50.0444 85.5322 50.7126 84.703 51.158C83.8513 51.6153 82.8977 51.8496 81.931 51.8391C80.93 51.8404 80.0265 51.614 79.2204 51.16ZM83.5104 49.5377C84.0163 49.2558 84.4323 48.8366 84.7103 48.3286C85.0183 47.7904 85.1723 47.1377 85.1723 46.3703C85.1723 45.603 85.0251 44.9535 84.7308 44.422C84.4634 43.9182 84.0571 43.5017 83.5599 43.2221C83.0786 42.9547 82.5364 42.8158 81.9858 42.8189C81.4382 42.815 80.8991 42.954 80.4216 43.2221C79.9311 43.5011 79.5337 43.9185 79.2791 44.422C78.9975 44.9535 78.8568 45.603 78.8568 46.3703C78.8568 47.5095 79.1478 48.3895 79.7299 49.0103C80.3121 49.6312 81.0449 49.9416 81.9284 49.9416C82.4815 49.9435 83.0259 49.8045 83.5104 49.5377Z" fill="#4C4A4A"/>
<path d="M43.5204 0.200012C36.3152 0.200012 30.335 5.42853 29.1582 12.2985C29.0168 13.1166 28.9453 13.9452 28.9443 14.7755C28.9443 22.8275 35.4704 29.3516 43.5204 29.3516C43.5785 29.3516 43.6353 29.3476 43.6934 29.3469V22.5489C43.6353 22.5489 43.5785 22.5529 43.5204 22.5529C42.0894 22.5529 40.6861 22.1582 39.4649 21.412C38.2438 20.6658 37.2522 19.5972 36.5993 18.3238C35.9464 17.0503 35.6576 15.6214 35.7645 14.1944C35.8714 12.7673 36.37 11.3975 37.2053 10.2355C38.0407 9.07358 39.1804 8.16464 40.4991 7.60876C41.8178 7.05287 43.2642 6.87159 44.6793 7.08487C46.0944 7.29815 47.4232 7.89772 48.5194 8.81758C49.6157 9.73745 50.4369 10.9419 50.8926 12.2985H57.882C56.7053 5.42919 50.725 0.200012 43.5204 0.200012Z" fill="url(#paint0_linear_1_72)"/>
<path d="M57.2622 16.6367C57.9307 16.6367 58.4726 16.0947 58.4726 15.4262C58.4726 14.7577 57.9307 14.2158 57.2622 14.2158C56.5937 14.2158 56.0518 14.7577 56.0518 15.4262C56.0518 16.0947 56.5937 16.6367 57.2622 16.6367Z" fill="url(#paint1_linear_1_72)"/>
<path d="M56.5361 21.0336C57.2046 21.0336 57.7466 20.4917 57.7466 19.8232C57.7466 19.1547 57.2046 18.6127 56.5361 18.6127C55.8676 18.6127 55.3257 19.1547 55.3257 19.8232C55.3257 20.4917 55.8676 21.0336 56.5361 21.0336Z" fill="url(#paint2_linear_1_72)"/>
<path d="M54.2773 24.8299C54.9458 24.8299 55.4878 24.288 55.4878 23.6195C55.4878 22.951 54.9458 22.409 54.2773 22.409C53.6088 22.409 53.0669 22.951 53.0669 23.6195C53.0669 24.288 53.6088 24.8299 54.2773 24.8299Z" fill="url(#paint3_linear_1_72)"/>
<path d="M50.7681 27.4521C51.4366 27.4521 51.9785 26.9101 51.9785 26.2416C51.9785 25.5731 51.4366 25.0312 50.7681 25.0312C50.0995 25.0312 49.5576 25.5731 49.5576 26.2416C49.5576 26.9101 50.0995 27.4521 50.7681 27.4521Z" fill="url(#paint4_linear_1_72)"/>
<path d="M46.5723 28.8639C47.2408 28.8639 47.7827 28.3219 47.7827 27.6534C47.7827 26.9849 47.2408 26.443 46.5723 26.443C45.9037 26.443 45.3618 26.9849 45.3618 27.6534C45.3618 28.3219 45.9037 28.8639 46.5723 28.8639Z" fill="url(#paint5_linear_1_72)"/>
<path d="M46.29 24.9328C46.7927 24.9328 47.2002 24.5253 47.2002 24.0227C47.2002 23.52 46.7927 23.1125 46.29 23.1125C45.7874 23.1125 45.3799 23.52 45.3799 24.0227C45.3799 24.5253 45.7874 24.9328 46.29 24.9328Z" fill="url(#paint6_linear_1_72)"/>
<path d="M49.3291 23.8301C49.8317 23.8301 50.2392 23.4226 50.2392 22.9199C50.2392 22.4173 49.8317 22.0098 49.3291 22.0098C48.8264 22.0098 48.4189 22.4173 48.4189 22.9199C48.4189 23.4226 48.8264 23.8301 49.3291 23.8301Z" fill="url(#paint7_linear_1_72)"/>
<path d="M51.8027 21.7867C52.3054 21.7867 52.7129 21.3792 52.7129 20.8765C52.7129 20.3739 52.3054 19.9664 51.8027 19.9664C51.3001 19.9664 50.8926 20.3739 50.8926 20.8765C50.8926 21.3792 51.3001 21.7867 51.8027 21.7867Z" fill="url(#paint8_linear_1_72)"/>
<path d="M53.3672 19.0971C53.8698 19.0971 54.2773 18.6897 54.2773 18.187C54.2773 17.6843 53.8698 17.2769 53.3672 17.2769C52.8645 17.2769 52.457 17.6843 52.457 18.187C52.457 18.6897 52.8645 19.0971 53.3672 19.0971Z" fill="url(#paint9_linear_1_72)"/>
<path d="M53.8515 15.9239C54.3542 15.9239 54.7617 15.5164 54.7617 15.0138C54.7617 14.5111 54.3542 14.1036 53.8515 14.1036C53.3489 14.1036 52.9414 14.5111 52.9414 15.0138C52.9414 15.5164 53.3489 15.9239 53.8515 15.9239Z" fill="url(#paint10_linear_1_72)"/>
<path d="M50.8936 15.2784C51.218 15.2784 51.481 15.0155 51.481 14.691C51.481 14.3666 51.218 14.1036 50.8936 14.1036C50.5691 14.1036 50.3062 14.3666 50.3062 14.691C50.3062 15.0155 50.5691 15.2784 50.8936 15.2784Z" fill="url(#paint11_linear_1_72)"/>
<path d="M50.6313 17.4161C50.9558 17.4161 51.2187 17.1531 51.2187 16.8287C51.2187 16.5043 50.9558 16.2413 50.6313 16.2413C50.3069 16.2413 50.0439 16.5043 50.0439 16.8287C50.0439 17.1531 50.3069 17.4161 50.6313 17.4161Z" fill="url(#paint12_linear_1_72)"/>
<path d="M49.7632 19.3618C50.0876 19.3618 50.3506 19.0988 50.3506 18.7744C50.3506 18.45 50.0876 18.187 49.7632 18.187C49.4388 18.187 49.1758 18.45 49.1758 18.7744C49.1758 19.0988 49.4388 19.3618 49.7632 19.3618Z" fill="url(#paint13_linear_1_72)"/>
<path d="M48.1504 20.8092C48.4748 20.8092 48.7378 20.5462 48.7378 20.2218C48.7378 19.8974 48.4748 19.6344 48.1504 19.6344C47.826 19.6344 47.563 19.8974 47.563 20.2218C47.563 20.5462 47.826 20.8092 48.1504 20.8092Z" fill="url(#paint14_linear_1_72)"/>
<path d="M46.2895 21.7372C46.614 21.7372 46.8769 21.4742 46.8769 21.1498C46.8769 20.8254 46.614 20.5624 46.2895 20.5624C45.9651 20.5624 45.7021 20.8254 45.7021 21.1498C45.7021 21.4742 45.9651 21.7372 46.2895 21.7372Z" fill="url(#paint15_linear_1_72)"/>
<path d="M2.82666 59.2978H3.80346C4.3836 59.2978 4.74462 59.6278 4.74462 60.1261V60.1333C4.74462 60.6858 4.30242 60.9795 3.75462 60.9795H3.26226V61.7781H2.82732L2.82666 59.2978ZM3.76782 60.5861C4.09782 60.5861 4.30242 60.402 4.30242 60.1439V60.1367C4.30242 59.8429 4.09386 59.6945 3.76782 59.6945H3.2616V60.5861H3.76782Z" fill="#4C4A4A"/>
<path d="M6.07617 59.2978H7.18035C7.49187 59.2978 7.73607 59.3902 7.89513 59.546C8.03142 59.6899 8.10542 59.8817 8.10105 60.0799V60.0872C8.10105 60.4944 7.85685 60.7386 7.51299 60.8376L8.18223 61.7781H7.66545L7.05693 60.9148H6.51177V61.7781H6.07617V59.2978ZM7.14867 60.5241C7.46019 60.5241 7.65819 60.365 7.65819 60.1102V60.103C7.65819 59.8337 7.47075 59.6925 7.14537 59.6925H6.51177V60.5241H7.14867Z" fill="#4C4A4A"/>
<path d="M9.41027 60.5438V60.5366C9.4089 60.3664 9.4417 60.1978 9.50672 60.0406C9.57174 59.8833 9.66765 59.7408 9.78877 59.6213C9.9099 59.5018 10.0538 59.4079 10.2119 59.3451C10.37 59.2822 10.5391 59.2518 10.7092 59.2555C11.4701 59.2555 12.0008 59.8323 12.0008 60.53V60.5366C12.0021 60.7067 11.9693 60.8754 11.9043 61.0327C11.8393 61.1899 11.7434 61.3325 11.6223 61.452C11.5012 61.5715 11.3573 61.6655 11.1992 61.7285C11.0411 61.7914 10.872 61.8219 10.7019 61.8183C10.5325 61.8228 10.3639 61.7931 10.2063 61.7309C10.0486 61.6687 9.9052 61.5752 9.78457 61.4562C9.66394 61.3372 9.56861 61.195 9.50429 61.0382C9.43997 60.8814 9.40799 60.7133 9.41027 60.5438ZM11.5447 60.5438V60.5366C11.5447 60.0554 11.1976 59.6588 10.7019 59.6588C10.2062 59.6588 9.86699 60.0482 9.86699 60.53V60.5366C9.86699 61.0184 10.2135 61.4144 10.7092 61.4144C11.2048 61.4144 11.5447 61.025 11.5447 60.5438Z" fill="#4C4A4A"/>
<path d="M13.3037 60.5439V60.5366C13.3037 59.8324 13.8317 59.2556 14.5782 59.2556C14.7582 59.2485 14.9378 59.2791 15.1053 59.3455C15.2729 59.4119 15.4247 59.5125 15.551 59.641L15.2718 59.9631C15.0699 59.7796 14.8613 59.6588 14.5742 59.6588C14.1076 59.6588 13.7604 60.0449 13.7604 60.53V60.5366C13.7604 61.0217 14.1036 61.4145 14.5782 61.4145C14.8791 61.4145 15.0771 61.2943 15.2897 61.0963L15.5688 61.3795C15.4451 61.5236 15.2905 61.6379 15.1164 61.7139C14.9424 61.7899 14.7534 61.8256 14.5636 61.8184C13.8416 61.8184 13.3037 61.2554 13.3037 60.5439Z" fill="#4C4A4A"/>
<path d="M16.875 60.722V59.2957H17.3106V60.7048C17.3106 61.1668 17.5442 61.4091 17.9369 61.4091C18.3296 61.4091 18.56 61.1787 18.56 60.722V59.2957H18.9956V60.7009C18.9956 61.4407 18.5778 61.8123 17.9297 61.8123C17.2816 61.8123 16.875 61.4427 16.875 60.722Z" fill="#4C4A4A"/>
<path d="M20.4785 59.2978H21.5827C21.8942 59.2978 22.1384 59.3902 22.2975 59.546C22.4336 59.6899 22.5074 59.8818 22.5027 60.0799V60.0872C22.5027 60.4944 22.2585 60.7386 21.9153 60.8376L22.5846 61.7781H22.0678L21.4586 60.9148H20.9135V61.7781H20.4785V59.2978ZM21.549 60.5241C21.8606 60.5241 22.0586 60.365 22.0586 60.1102V60.103C22.0586 59.8337 21.8711 59.6925 21.5451 59.6925H20.9115V60.5241H21.549Z" fill="#4C4A4A"/>
<path d="M23.9248 59.2978H25.7616V59.6872H24.3578V60.3313H25.5999V60.7274H24.3578V61.3874H25.7768V61.7768H23.9248V59.2978Z" fill="#4C4A4A"/>
<path d="M27.1787 59.2978H27.6407L28.3951 60.4693L29.1488 59.2978H29.6108V61.7781H29.1752V59.9961L28.3931 61.1643H28.3786L27.6038 60.0033V61.7781H27.1787V59.2978Z" fill="#4C4A4A"/>
<path d="M31.1362 59.2978H32.973V59.6872H31.5712V60.3313H32.8139V60.7274H31.5712V61.3874H32.9908V61.7768H31.1362V59.2978Z" fill="#4C4A4A"/>
<path d="M34.3926 59.2978H34.7958L36.1231 61.0138V59.2978H36.5514V61.7781H36.1871L34.8209 60.0159V61.7781H34.3926V59.2978Z" fill="#4C4A4A"/>
<path d="M38.6787 59.7017H37.8867V59.2978H39.9037V59.7017H39.1117V61.7781H38.6761L38.6787 59.7017Z" fill="#4C4A4A"/>
<path d="M43.1885 59.2978H44.1653C44.7454 59.2978 45.1064 59.6278 45.1064 60.1261V60.1333C45.1064 60.6858 44.6642 60.9795 44.1164 60.9795H43.6241V61.7781H43.1891L43.1885 59.2978ZM44.1296 60.5861C44.4596 60.5861 44.6642 60.402 44.6642 60.1439V60.1367C44.6642 59.8429 44.455 59.6945 44.1296 59.6945H43.6234V60.5861H44.1296Z" fill="#4C4A4A"/>
<path d="M46.4377 59.2978H47.5419C47.8534 59.2978 48.0976 59.3902 48.2566 59.546C48.3927 59.6899 48.4665 59.8818 48.4619 60.0799V60.0872C48.4619 60.4944 48.2177 60.7386 47.8745 60.8376L48.5431 61.7781H48.0263L47.4171 60.9148H46.872V61.7781H46.437L46.4377 59.2978ZM47.5102 60.5261C47.8217 60.5261 48.0197 60.367 48.0197 60.1122V60.105C48.0197 59.8357 47.8323 59.6945 47.5062 59.6945H46.8726V60.5241L47.5102 60.5261Z" fill="#4C4A4A"/>
<path d="M49.7721 60.5438V60.5366C49.7707 60.3664 49.8035 60.1978 49.8685 60.0406C49.9336 59.8833 50.0295 59.7408 50.1506 59.6213C50.2717 59.5018 50.4156 59.4079 50.5737 59.3451C50.7318 59.2822 50.9009 59.2518 51.071 59.2555C51.832 59.2555 52.3626 59.8323 52.3626 60.53V60.5366C52.364 60.7067 52.3312 60.8754 52.2662 61.0327C52.2011 61.1899 52.1052 61.3325 51.9841 61.452C51.863 61.5715 51.7191 61.6655 51.561 61.7285C51.4029 61.7914 51.2338 61.8219 51.0637 61.8183C50.8943 61.8228 50.7257 61.7931 50.5681 61.7309C50.4105 61.6687 50.267 61.5752 50.1464 61.4562C50.0258 61.3372 49.9304 61.195 49.8661 61.0382C49.8018 60.8814 49.7698 60.7133 49.7721 60.5438ZM51.9059 60.5438V60.5366C51.9059 60.0554 51.5594 59.6588 51.0637 59.6588C50.568 59.6588 50.2288 60.0482 50.2288 60.53V60.5366C50.2288 61.0184 50.5753 61.4144 51.071 61.4144C51.5666 61.4144 51.9092 61.025 51.9092 60.5438H51.9059Z" fill="#4C4A4A"/>
<path d="M53.7749 59.2978H55.6189V59.6938H54.2105V60.3696H55.4599V60.7656H54.2105V61.7781H53.7749V59.2978Z" fill="#4C4A4A"/>
<path d="M56.9819 59.2978H58.8187V59.6872H57.4175V60.3313H58.6597V60.7274H57.4175V61.3874H58.8392V61.7768H56.9846L56.9819 59.2978Z" fill="#4C4A4A"/>
<path d="M60.0718 61.4144L60.3358 61.1029C60.576 61.3121 60.8097 61.425 61.1179 61.425C61.3865 61.425 61.5568 61.2976 61.5568 61.1134V61.1068C61.5568 60.9333 61.4578 60.8303 60.9971 60.728C60.4691 60.6039 60.1728 60.4409 60.1728 59.9881V59.9809C60.1728 59.5565 60.5265 59.2628 61.0189 59.2628C61.3461 59.2561 61.6649 59.3666 61.9178 59.5743L61.6842 59.9043C61.4578 59.738 61.238 59.6496 61.0116 59.6496C60.7569 59.6496 60.6084 59.7769 60.6084 59.9433V59.9505C60.6084 60.1419 60.7212 60.2264 61.2024 60.3399C61.7224 60.4719 61.9944 60.6514 61.9944 61.0659V61.0732C61.9944 61.5405 61.63 61.813 61.11 61.813C60.7256 61.818 60.354 61.6753 60.0718 61.4144Z" fill="#4C4A4A"/>
<path d="M63.1865 61.4143L63.4505 61.1028C63.6914 61.312 63.9251 61.4249 64.2326 61.4249C64.5019 61.4249 64.6715 61.2975 64.6715 61.1134V61.1068C64.6715 60.9332 64.5725 60.8302 64.1125 60.7279C63.5845 60.6039 63.2875 60.4408 63.2875 59.9881V59.9808C63.2875 59.5564 63.6419 59.2627 64.1336 59.2627C64.4608 59.2559 64.7797 59.3664 65.0325 59.5743L64.7989 59.9043C64.5725 59.7379 64.3534 59.6495 64.1264 59.6495C63.8716 59.6495 63.7231 59.7769 63.7231 59.9432V59.9505C63.7231 60.1419 63.8366 60.2263 64.3171 60.3399C64.8372 60.4719 65.1091 60.6514 65.1091 61.0659V61.0731C65.1091 61.5404 64.7448 61.813 64.224 61.813C63.84 61.8176 63.4687 61.6749 63.1865 61.4143Z" fill="#4C4A4A"/>
<path d="M66.5278 59.2978H66.9634V61.7781H66.5278V59.2978Z" fill="#4C4A4A"/>
<path d="M68.4005 60.5438V60.5366C68.3991 60.3664 68.4319 60.1978 68.497 60.0406C68.562 59.8833 68.6579 59.7408 68.779 59.6213C68.9001 59.5018 69.044 59.4079 69.2021 59.3451C69.3602 59.2822 69.5293 59.2518 69.6994 59.2555C70.4604 59.2555 70.991 59.8323 70.991 60.53V60.5366C70.9924 60.7067 70.9596 60.8754 70.8946 61.0327C70.8296 61.1899 70.7336 61.3325 70.6125 61.452C70.4914 61.5715 70.3476 61.6655 70.1895 61.7285C70.0314 61.7914 69.8622 61.8219 69.6921 61.8183C69.5227 61.8228 69.3541 61.7931 69.1965 61.7309C69.0389 61.6687 68.8954 61.5752 68.7748 61.4562C68.6542 61.3372 68.5588 61.195 68.4945 61.0382C68.4302 60.8814 68.3982 60.7133 68.4005 60.5438ZM70.5349 60.5438V60.5366C70.5349 60.0554 70.1878 59.6588 69.6921 59.6588C69.1965 59.6588 68.8572 60.0482 68.8572 60.53V60.5366C68.8572 61.0184 69.2037 61.4144 69.6994 61.4144C70.195 61.4144 70.5349 61.025 70.5349 60.5438Z" fill="#4C4A4A"/>
<path d="M72.4033 59.2978H72.8072L74.1345 61.0138V59.2978H74.5628V61.7781H74.1979L72.8317 60.0159V61.7781H72.4033V59.2978Z" fill="#4C4A4A"/>
<path d="M76.9629 59.28H77.3661L78.4565 61.7755H77.9945L77.743 61.1775H76.5735L76.3187 61.7755H75.8726L76.9629 59.28ZM77.5859 60.7914L77.1576 59.8014L76.7325 60.7914H77.5859Z" fill="#4C4A4A"/>
<path d="M79.7656 59.2978H80.2012V61.3821H81.5034V61.7781H79.7656V59.2978Z" fill="#4C4A4A"/>
<path d="M82.6714 61.4144L82.9354 61.1029C83.1763 61.3121 83.4099 61.425 83.7175 61.425C83.9868 61.425 84.1564 61.2976 84.1564 61.1135V61.1069C84.1564 60.9333 84.0574 60.8303 83.5974 60.728C83.0694 60.6039 82.7724 60.4409 82.7724 59.9882V59.9809C82.7724 59.5565 83.1268 59.2628 83.6185 59.2628C83.9457 59.2561 84.2645 59.3666 84.5174 59.5743L84.2838 59.9043C84.0574 59.738 83.8383 59.6496 83.6112 59.6496C83.3565 59.6496 83.208 59.777 83.208 59.9433V59.9506C83.208 60.1419 83.3215 60.2264 83.802 60.3399C84.3227 60.4719 84.594 60.6515 84.594 61.0659V61.0732C84.594 61.5405 84.229 61.8131 83.7089 61.8131C83.3248 61.8177 82.9536 61.675 82.6714 61.4144Z" fill="#4C4A4A"/>
<defs>
<linearGradient id="paint0_linear_1_72" x1="28.9443" y1="14.7761" x2="57.882" y2="14.7761" gradientUnits="userSpaceOnUse">
<stop stop-color="#EF5F26"/>
<stop offset="1" stop-color="#F3A32E"/>
</linearGradient>
<linearGradient id="paint1_linear_1_72" x1="2958.12" y1="1664.53" x2="3046.89" y2="1664.53" gradientUnits="userSpaceOnUse">
<stop stop-color="#EF5F26"/>
<stop offset="1" stop-color="#F3A32E"/>
</linearGradient>
<linearGradient id="paint2_linear_1_72" x1="2930.77" y1="1830.21" x2="3019.55" y2="1830.21" gradientUnits="userSpaceOnUse">
<stop stop-color="#EF5F26"/>
<stop offset="1" stop-color="#F3A32E"/>
</linearGradient>
<linearGradient id="paint3_linear_1_72" x1="2845.64" y1="1973.25" x2="2934.44" y2="1973.25" gradientUnits="userSpaceOnUse">
<stop stop-color="#EF5F26"/>
<stop offset="1" stop-color="#F3A32E"/>
</linearGradient>
<linearGradient id="paint4_linear_1_72" x1="2713.42" y1="2072.05" x2="2802.19" y2="2072.05" gradientUnits="userSpaceOnUse">
<stop stop-color="#EF5F26"/>
<stop offset="1" stop-color="#F3A32E"/>
</linearGradient>
<linearGradient id="paint5_linear_1_72" x1="2555.35" y1="2125.25" x2="2644.12" y2="2125.25" gradientUnits="userSpaceOnUse">
<stop stop-color="#EF5F26"/>
<stop offset="1" stop-color="#F3A32E"/>
</linearGradient>
<linearGradient id="paint6_linear_1_72" x1="1933.16" y1="1501.09" x2="1983.35" y2="1501.09" gradientUnits="userSpaceOnUse">
<stop stop-color="#EF5F26"/>
<stop offset="1" stop-color="#F3A32E"/>
</linearGradient>
<linearGradient id="paint7_linear_1_72" x1="2019.99" y1="1469.57" x2="2070.18" y2="1469.57" gradientUnits="userSpaceOnUse">
<stop stop-color="#EF5F26"/>
<stop offset="1" stop-color="#F3A32E"/>
</linearGradient>
<linearGradient id="paint8_linear_1_72" x1="2090.72" y1="1411.17" x2="2140.9" y2="1411.17" gradientUnits="userSpaceOnUse">
<stop stop-color="#EF5F26"/>
<stop offset="1" stop-color="#F3A32E"/>
</linearGradient>
<linearGradient id="paint9_linear_1_72" x1="2135.42" y1="1334.31" x2="2185.6" y2="1334.31" gradientUnits="userSpaceOnUse">
<stop stop-color="#EF5F26"/>
<stop offset="1" stop-color="#F3A32E"/>
</linearGradient>
<linearGradient id="paint10_linear_1_72" x1="2149.24" y1="1243.61" x2="2199.45" y2="1243.61" gradientUnits="userSpaceOnUse">
<stop stop-color="#EF5F26"/>
<stop offset="1" stop-color="#F3A32E"/>
</linearGradient>
<linearGradient id="paint11_linear_1_72" x1="1356.36" y1="801.881" x2="1377.27" y2="801.881" gradientUnits="userSpaceOnUse">
<stop stop-color="#EF5F26"/>
<stop offset="1" stop-color="#F3A32E"/>
</linearGradient>
<linearGradient id="paint12_linear_1_72" x1="1351.42" y1="842.065" x2="1372.32" y2="842.065" gradientUnits="userSpaceOnUse">
<stop stop-color="#EF5F26"/>
<stop offset="1" stop-color="#F3A32E"/>
</linearGradient>
<linearGradient id="paint13_linear_1_72" x1="1335.12" y1="878.644" x2="1356.02" y2="878.644" gradientUnits="userSpaceOnUse">
<stop stop-color="#EF5F26"/>
<stop offset="1" stop-color="#F3A32E"/>
</linearGradient>
<linearGradient id="paint14_linear_1_72" x1="1304.78" y1="905.854" x2="1325.68" y2="905.854" gradientUnits="userSpaceOnUse">
<stop stop-color="#EF5F26"/>
<stop offset="1" stop-color="#F3A32E"/>
</linearGradient>
<linearGradient id="paint15_linear_1_72" x1="1269.81" y1="923.306" x2="1290.71" y2="923.306" gradientUnits="userSpaceOnUse">
<stop stop-color="#EF5F26"/>
<stop offset="1" stop-color="#F3A32E"/>
</linearGradient>
</defs>
</svg>
