<svg width="28" height="22" viewBox="0 0 28 22" fill="none" xmlns="http://www.w3.org/2000/svg">
<path d="M14 19C13.6071 19 13.2303 18.8596 12.9525 18.6095C12.6746 18.3595 12.5186 18.0203 12.5186 17.6667V1.66671C12.5186 1.31309 12.6746 0.973947 12.9525 0.723899C13.2303 0.47385 13.6071 0.333374 14 0.333374C14.393 0.333374 14.7698 0.47385 15.0476 0.723899C15.3254 0.973947 15.4815 1.31309 15.4815 1.66671V17.6667C15.4815 18.0203 15.3254 18.3595 15.0476 18.6095C14.7698 18.8596 14.393 19 14 19Z" fill="#EB804E"/>
<path d="M25.8517 21.6667C25.4588 21.6667 25.082 21.5262 24.8041 21.2761C24.5263 21.0261 24.3702 20.687 24.3702 20.3333C24.3702 12.1067 19.8072 5.66667 13.9998 5.66667C8.19243 5.66667 3.62947 12.1067 3.62947 20.3333C3.62947 20.687 3.47338 21.0261 3.19555 21.2761C2.91772 21.5262 2.5409 21.6667 2.14799 21.6667C1.75507 21.6667 1.37825 21.5262 1.10042 21.2761C0.822588 21.0261 0.666504 20.687 0.666504 20.3333C0.666504 10.4533 6.39984 3 13.9998 3C21.5998 3 27.3332 10.4533 27.3332 20.3333C27.3332 20.687 27.1771 21.0261 26.8993 21.2761C26.6214 21.5262 26.2446 21.6667 25.8517 21.6667Z" fill="#EB804E"/>
</svg>
