<svg width="50" height="50" viewBox="0 0 50 50" fill="none" xmlns="http://www.w3.org/2000/svg">
<path d="M21.9463 31.2346C21.5999 31.2344 21.2642 31.1142 20.9963 30.8946L16.5163 27.2246C15.9037 26.6924 15.8254 25.7696 16.3395 25.1418C16.8537 24.514 17.7738 24.4089 18.4163 24.9046L21.8863 27.7446L31.8863 18.5346C32.2622 18.0877 32.8633 17.8995 33.4269 18.0523C33.9905 18.2052 34.4142 18.6712 34.5128 19.2468C34.6114 19.8224 34.3669 20.4029 33.8863 20.7346L22.9663 30.8346C22.69 31.0935 22.325 31.2367 21.9463 31.2346Z" fill="#EB804E"/>
<path d="M27.7334 3.92795L30.4065 6.42986C31.4682 7.42358 32.8547 7.99788 34.3081 8.04597L37.9674 8.16704C40.0728 8.23669 41.7633 9.92723 41.833 12.0326L41.954 15.6919C42.0021 17.1453 42.5764 18.5318 43.5701 19.5935L46.0721 22.2666C47.5115 23.8046 47.5115 26.1954 46.0721 27.7334L43.5701 30.4065C42.5764 31.4682 42.0021 32.8547 41.954 34.3081L41.833 37.9674C41.7633 40.0728 40.0728 41.7633 37.9674 41.833L34.3081 41.954C32.8547 42.0021 31.4682 42.5764 30.4065 43.5701L27.7334 46.0721C26.1954 47.5115 23.8046 47.5115 22.2666 46.0721L19.5935 43.5701C18.5318 42.5764 17.1453 42.0021 15.6919 41.954L12.0326 41.833C9.92723 41.7633 8.23669 40.0728 8.16704 37.9674L8.04597 34.3081C7.99788 32.8547 7.42358 31.4682 6.42986 30.4065L3.92794 27.7333C2.48849 26.1954 2.48849 23.8046 3.92795 22.2666L6.42986 19.5935C7.42358 18.5318 7.99788 17.1453 8.04597 15.6919L8.16704 12.0326C8.23669 9.92722 9.92723 8.23669 12.0326 8.16704L15.6919 8.04597C17.1453 7.99788 18.5318 7.42358 19.5935 6.42986L22.2667 3.92794C23.8046 2.48849 26.1954 2.48849 27.7334 3.92795Z" stroke="#EB804E" stroke-width="2"/>
</svg>
