<svg width="192" height="45" viewBox="0 0 192 45" fill="none" xmlns="http://www.w3.org/2000/svg">
<path d="M62.8759 30.9195C61.2897 30.0389 59.9738 28.7406 59.0705 27.1649C58.1368 25.559 57.6699 23.7508 57.6699 21.7404C57.6699 19.73 58.1368 17.9266 59.0705 16.3301C59.9771 14.7609 61.2924 13.4683 62.8759 12.5908C64.4966 11.7084 66.3118 11.2461 68.1563 11.2461C70.0008 11.2461 71.8161 11.7084 73.4368 12.5908C75.0176 13.4665 76.3285 14.7599 77.2269 16.3301C78.1512 17.9272 78.6133 19.7307 78.6133 21.7404C78.6133 23.7502 78.1512 25.5583 77.2269 27.1649C76.3328 28.741 75.0229 30.04 73.4409 30.9195C71.8201 31.8019 70.0049 32.2642 68.1604 32.2642C66.3159 32.2642 64.5007 31.8019 62.8799 30.9195H62.8759ZM71.7695 28.4059C72.8384 27.778 73.7039 26.8545 74.2624 25.746C74.8614 24.5941 75.1613 23.2589 75.162 21.7404C75.1627 20.2219 74.8628 18.8915 74.2624 17.749C73.7027 16.6491 72.8367 15.7354 71.7695 15.1186C70.7079 14.5088 69.4986 14.2039 68.1416 14.2039C66.7846 14.2039 65.575 14.5088 64.5128 15.1186C63.4456 15.7352 62.5799 16.649 62.0209 17.749C61.4205 18.8928 61.1206 20.2233 61.1213 21.7404C61.122 23.2576 61.4218 24.5928 62.0209 25.746C62.5794 26.855 63.4458 27.7787 64.5158 28.4059C65.5774 29.0266 66.787 29.3373 68.1447 29.338C69.5024 29.3386 70.7106 29.028 71.7695 28.4059Z" fill="white"/>
<path d="M88.7311 18.5176H85.722V32.057H82.3305V18.5176H80.4126V15.7734H82.3305V14.6198C82.3305 12.7476 82.8268 11.3829 83.8193 10.5257C84.8119 9.66857 86.3704 9.23999 88.4948 9.23999V12.0483C87.4725 12.0483 86.7548 12.2404 86.3417 12.6246C85.9285 13.0088 85.722 13.6738 85.722 14.6198V15.7734H88.7311V18.5176Z" fill="white"/>
<path d="M98.5246 18.5176H95.5154V32.057H92.1229V18.5176H90.2061V15.7734H92.1229V14.6198C92.1229 12.7476 92.6195 11.3829 93.6128 10.5257C94.606 9.66857 96.1645 9.23999 98.2883 9.23999V12.0483C97.266 12.0483 96.5482 12.2404 96.1351 12.6246C95.722 13.0088 95.5154 13.6738 95.5154 14.6198V15.7734H98.5246V18.5176Z" fill="white"/>
<path d="M101.679 12.9904C101.373 12.6883 101.165 12.3017 101.08 11.8801C100.995 11.4585 101.038 11.0212 101.203 10.6241C101.368 10.227 101.647 9.88833 102.005 9.65148C102.364 9.41464 102.784 9.29042 103.213 9.29475C103.493 9.28985 103.771 9.34243 104.03 9.44924C104.288 9.55605 104.522 9.71481 104.718 9.91576C105.115 10.3284 105.337 10.8796 105.337 11.4531C105.337 12.0266 105.115 12.5777 104.718 12.9904C104.522 13.1911 104.288 13.3497 104.03 13.4563C103.771 13.563 103.493 13.6154 103.213 13.6104C102.929 13.6173 102.646 13.5659 102.382 13.4593C102.118 13.3527 101.879 13.1931 101.679 12.9904ZM104.866 15.7692V32.0569H101.503V15.7692H104.866Z" fill="white"/>
<path d="M109.186 19.4789C109.825 18.2486 110.803 17.2278 112.004 16.5375C113.205 15.847 114.583 15.5038 116.138 15.5078C118.104 15.5078 119.731 15.9757 121.02 16.9115C122.309 17.8473 123.179 19.1825 123.63 20.9171H119.998C119.735 20.1526 119.238 19.4907 118.578 19.0256C117.929 18.5723 117.112 18.3456 116.129 18.3456C114.752 18.3456 113.656 18.8335 112.84 19.8092C112.025 20.785 111.617 22.1496 111.616 23.9033C111.616 25.6576 112.024 27.0273 112.84 28.0126C113.656 28.9978 114.756 29.4887 116.138 29.4853C118.084 29.4853 119.372 28.6281 120.003 26.9138H123.63C123.157 28.5685 122.272 29.8837 120.976 30.8595C119.68 31.8352 118.068 32.3231 116.138 32.3231C114.583 32.3231 113.207 31.9734 112.009 31.2742C110.807 30.5753 109.828 29.5489 109.186 28.3144C108.51 27.0426 108.172 25.5695 108.172 23.8951C108.172 22.2208 108.51 20.7487 109.186 19.4789Z" fill="white"/>
<path d="M141.768 25.1699H129.349C129.448 26.4695 129.93 27.514 130.795 28.3034C131.661 29.0928 132.723 29.4868 133.981 29.4855C135.789 29.4855 137.067 28.7266 137.816 27.2088H141.443C140.965 28.6881 140.031 29.9769 138.774 30.8891C137.486 31.8459 135.888 32.3239 133.981 32.3233C132.426 32.3233 131.034 31.9736 129.806 31.2743C128.584 30.5818 127.582 29.5567 126.916 28.3177C126.218 27.0458 125.869 25.5727 125.869 23.8984C125.869 22.224 126.207 20.7509 126.883 19.4791C127.53 18.24 128.525 17.2176 129.744 16.5376C130.974 15.8472 132.385 15.5023 133.978 15.5029C135.511 15.5029 136.878 15.838 138.078 16.5081C139.261 17.1625 140.233 18.1417 140.88 19.3307C141.548 20.5436 141.883 21.9381 141.884 23.5142C141.888 24.0682 141.85 24.6218 141.768 25.1699ZM138.375 22.45C138.356 21.208 137.914 20.2126 137.049 19.4638C136.184 18.7151 135.112 18.3407 133.833 18.3407C132.672 18.3407 131.68 18.7103 130.854 19.4496C130.028 20.1889 129.537 21.189 129.379 22.45H138.375Z" fill="white"/>
<path d="M150.881 16.2712C151.865 15.7589 152.976 15.5028 154.215 15.5028C155.582 15.4858 156.926 15.8499 158.098 16.5546C159.27 17.2593 160.224 18.2767 160.852 19.4931C161.521 20.7541 161.855 22.2028 161.855 23.8392C161.855 25.4756 161.521 26.9389 160.852 28.2291C160.229 29.4706 159.274 30.5143 158.093 31.2437C156.928 31.9627 155.583 32.3369 154.215 32.3231C152.976 32.3231 151.874 32.0717 150.911 31.5689C150.004 31.1127 149.201 30.474 148.552 29.6927V36.8898H145.188V15.7691H148.552V18.1627C149.12 17.4146 149.897 16.7841 150.881 16.2712ZM157.739 20.9273C157.316 20.1481 156.684 19.5032 155.914 19.0652C155.171 18.645 154.332 18.4257 153.48 18.429C152.635 18.4289 151.805 18.6534 151.075 19.0795C150.304 19.5291 149.672 20.1838 149.249 20.971C148.787 21.7997 148.556 22.7754 148.557 23.8982C148.557 25.021 148.788 26.0015 149.249 26.8396C149.657 27.611 150.266 28.2566 151.012 28.7072C151.758 29.1577 152.612 29.3962 153.483 29.3969C154.339 29.3996 155.18 29.1695 155.917 28.7312C156.691 28.2686 157.323 27.6002 157.742 26.8C158.205 25.9537 158.436 24.9685 158.436 23.8443C158.436 22.7202 158.204 21.7478 157.739 20.9273Z" fill="white"/>
<path d="M170.512 16.1971C171.328 15.7343 172.296 15.5029 173.418 15.5029V18.9912H172.562C171.244 18.9912 170.246 19.3263 169.568 19.9964C168.89 20.6666 168.552 21.8293 168.554 23.4847V32.0569H165.191V15.7692H168.554V18.1334C169.024 17.3257 169.7 16.6575 170.512 16.1971Z" fill="white"/>
<path d="M179.406 31.2745C178.174 30.5826 177.161 29.5568 176.484 28.3147C175.776 27.0429 175.422 25.5698 175.422 23.8954C175.422 22.2401 175.786 20.7717 176.514 19.4904C177.208 18.2429 178.242 17.2181 179.493 16.5347C180.752 15.8442 182.158 15.4993 183.712 15.5C185.265 15.5007 186.671 15.8456 187.93 16.5347C189.181 17.2181 190.215 18.2429 190.909 19.4904C191.637 20.7717 192.001 22.2401 192.001 23.8954C192.001 25.5508 191.629 27.0192 190.885 28.3005C190.163 29.5565 189.105 30.5855 187.831 31.2714C186.522 31.9757 185.057 32.3365 183.572 32.3203C182.033 32.3224 180.645 31.9737 179.406 31.2745ZM185.999 28.7762C186.776 28.342 187.415 27.6965 187.842 26.9141C188.316 26.0854 188.552 25.0802 188.552 23.8985C188.552 22.7168 188.326 21.7166 187.874 20.8981C187.463 20.1222 186.839 19.4808 186.075 19.0503C185.335 18.6384 184.502 18.4245 183.656 18.4292C182.814 18.4233 181.986 18.6374 181.252 19.0503C180.498 19.4799 179.888 20.1226 179.496 20.8981C179.064 21.7166 178.847 22.7168 178.847 23.8985C178.847 25.6528 179.295 27.008 180.189 27.9641C181.084 28.9202 182.21 29.3982 183.567 29.3982C184.417 29.4012 185.254 29.1871 185.999 28.7762Z" fill="white"/>
<path d="M22.3988 0C11.3267 0 2.13694 8.05188 0.328603 18.6315C0.111427 19.8914 0.00149761 21.1675 0 22.4461C0 34.8461 10.0285 44.8932 22.3988 44.8932C22.4881 44.8932 22.5753 44.8871 22.6645 44.886V34.4172C22.5753 34.4172 22.4881 34.4233 22.3988 34.4233C20.1998 34.4233 18.0433 33.8154 16.1668 32.6663C14.2903 31.5172 12.7666 29.8715 11.7633 27.9104C10.76 25.9494 10.3161 23.7489 10.4804 21.5512C10.6447 19.3536 11.4108 17.244 12.6945 15.4546C13.9782 13.6652 15.7296 12.2655 17.756 11.4094C19.7823 10.5534 22.0051 10.2742 24.1796 10.6026C26.3541 10.9311 28.3961 11.8544 30.0807 13.271C31.7652 14.6876 33.0272 16.5425 33.7275 18.6315H44.468C42.6597 8.0529 33.4699 0 22.3988 0Z" fill="white"/>
<path d="M43.5153 25.3124C44.5426 25.3124 45.3754 24.4778 45.3754 23.4483C45.3754 22.4188 44.5426 21.5842 43.5153 21.5842C42.488 21.5842 41.6553 22.4188 41.6553 23.4483C41.6553 24.4778 42.488 25.3124 43.5153 25.3124Z" fill="white"/>
<path d="M42.4006 32.0838C43.4279 32.0838 44.2606 31.2493 44.2606 30.2198C44.2606 29.1903 43.4279 28.3557 42.4006 28.3557C41.3733 28.3557 40.5405 29.1903 40.5405 30.2198C40.5405 31.2493 41.3733 32.0838 42.4006 32.0838Z" fill="white"/>
<path d="M38.9279 37.9298C39.9552 37.9298 40.788 37.0952 40.788 36.0657C40.788 35.0362 39.9552 34.2017 38.9279 34.2017C37.9006 34.2017 37.0679 35.0362 37.0679 36.0657C37.0679 37.0952 37.9006 37.9298 38.9279 37.9298Z" fill="white"/>
<path d="M33.5363 41.9681C34.5636 41.9681 35.3964 41.1336 35.3964 40.1041C35.3964 39.0746 34.5636 38.24 33.5363 38.24C32.509 38.24 31.6763 39.0746 31.6763 40.1041C31.6763 41.1336 32.509 41.9681 33.5363 41.9681Z" fill="white"/>
<path d="M27.0891 44.1419C28.1163 44.1419 28.9491 43.3074 28.9491 42.2779C28.9491 41.2484 28.1163 40.4138 27.0891 40.4138C26.0618 40.4138 25.229 41.2484 25.229 42.2779C25.229 43.3074 26.0618 44.1419 27.0891 44.1419Z" fill="white"/>
<path d="M26.6549 38.0884C27.4274 38.0884 28.0535 37.4609 28.0535 36.6868C28.0535 35.9127 27.4274 35.2852 26.6549 35.2852C25.8825 35.2852 25.2563 35.9127 25.2563 36.6868C25.2563 37.4609 25.8825 38.0884 26.6549 38.0884Z" fill="white"/>
<path d="M31.3249 36.3901C32.0973 36.3901 32.7234 35.7626 32.7234 34.9885C32.7234 34.2144 32.0973 33.5869 31.3249 33.5869C30.5524 33.5869 29.9263 34.2144 29.9263 34.9885C29.9263 35.7626 30.5524 36.3901 31.3249 36.3901Z" fill="white"/>
<path d="M35.1261 33.2432C35.8986 33.2432 36.5247 32.6156 36.5247 31.8416C36.5247 31.0675 35.8986 30.4399 35.1261 30.4399C34.3537 30.4399 33.7275 31.0675 33.7275 31.8416C33.7275 32.6156 34.3537 33.2432 35.1261 33.2432Z" fill="white"/>
<path d="M37.5299 29.1016C38.3024 29.1016 38.9285 28.474 38.9285 27.7C38.9285 26.9259 38.3024 26.2983 37.5299 26.2983C36.7575 26.2983 36.1313 26.9259 36.1313 27.7C36.1313 28.474 36.7575 29.1016 37.5299 29.1016Z" fill="white"/>
<path d="M38.2746 24.2146C39.047 24.2146 39.6732 23.5871 39.6732 22.813C39.6732 22.0389 39.047 21.4114 38.2746 21.4114C37.5022 21.4114 36.876 22.0389 36.876 22.813C36.876 23.5871 37.5022 24.2146 38.2746 24.2146Z" fill="white"/>
<path d="M33.7283 23.2206C34.2269 23.2206 34.631 22.8156 34.631 22.316C34.631 21.8164 34.2269 21.4114 33.7283 21.4114C33.2298 21.4114 32.8257 21.8164 32.8257 22.316C32.8257 22.8156 33.2298 23.2206 33.7283 23.2206Z" fill="white"/>
<path d="M33.326 26.5125C33.8245 26.5125 34.2286 26.1076 34.2286 25.608C34.2286 25.1084 33.8245 24.7034 33.326 24.7034C32.8275 24.7034 32.4233 25.1084 32.4233 25.608C32.4233 26.1076 32.8275 26.5125 33.326 26.5125Z" fill="white"/>
<path d="M31.992 29.5091C32.4905 29.5091 32.8947 29.1041 32.8947 28.6045C32.8947 28.1049 32.4905 27.7 31.992 27.7C31.4935 27.7 31.0894 28.1049 31.0894 28.6045C31.0894 29.1041 31.4935 29.5091 31.992 29.5091Z" fill="white"/>
<path d="M29.513 31.7379C30.0115 31.7379 30.4156 31.3329 30.4156 30.8333C30.4156 30.3337 30.0115 29.9287 29.513 29.9287C29.0145 29.9287 28.6104 30.3337 28.6104 30.8333C28.6104 31.3329 29.0145 31.7379 29.513 31.7379Z" fill="white"/>
<path d="M26.6541 33.1671C27.1526 33.1671 27.5568 32.7621 27.5568 32.2625C27.5568 31.7629 27.1526 31.3579 26.6541 31.3579C26.1556 31.3579 25.7515 31.7629 25.7515 32.2625C25.7515 32.7621 26.1556 33.1671 26.6541 33.1671Z" fill="white"/>
</svg>
