<svg width="50" height="50" viewBox="0 0 50 50" fill="none" xmlns="http://www.w3.org/2000/svg">
<path d="M46.8665 3H3.13314C1.95981 3 1 3.95981 1 5.13314V37.1332C1 38.3065 1.95981 39.2663 3.13314 39.2663H19.1331V41.3994H17.5331C14.5996 41.3994 12.1997 43.7993 12.1997 46.7328C12.1997 47.3195 12.6796 47.7993 13.2663 47.7993H36.733C37.3196 47.7993 37.7995 47.3194 37.7995 46.7328C37.7995 43.7993 35.3996 41.3994 32.4662 41.3994H30.8661V39.2663H46.8661C48.0394 39.2663 48.9993 38.3065 48.9993 37.1332L49 5.13314C49 3.95981 48.0398 3 46.8665 3ZM32.4665 43.5333C33.8531 43.5333 35.0264 44.44 35.5067 45.6665L14.4933 45.6669C14.9201 44.4403 16.0934 43.5337 17.5335 43.5337L32.4665 43.5333ZM21.2665 41.4002V39.2671H28.733V41.4002H21.2665ZM46.8665 37.1334H3.13314V5.13343H46.8665V37.1334Z" fill="#EB804E"/>
<path d="M18.0802 33H31.8434C32.7897 33 33.5639 32.2258 33.5639 31.2795V18.0897C33.5639 17.1435 32.7897 16.3692 31.8434 16.3692H29.8363V13.9318C29.8363 11.2079 27.6572 9 24.9619 9C22.2666 9 20.0875 11.2079 20.0875 13.9318V16.3692H18.0804C17.1341 16.3692 16.3599 17.1434 16.3599 18.0897V31.2795C16.3597 32.2257 17.1339 33 18.0802 33ZM21.2341 13.9035C21.2341 11.8104 22.8972 10.1185 24.9618 10.1185C27.0263 10.1185 28.6894 11.8102 28.6894 13.9035V16.3408H21.2343L21.2341 13.9035ZM17.5065 18.0899C17.5065 17.7745 17.7646 17.5165 18.08 17.5165H20.0871V23.3085H21.2339L21.2341 17.5165H28.6892V23.3085H29.836V17.5165H31.8431C32.1585 17.5165 32.4165 17.7745 32.4165 18.0899V31.2797C32.4165 31.5951 32.1585 31.8531 31.8431 31.8531H18.0799C17.7644 31.8531 17.5064 31.5951 17.5064 31.2797L17.5065 18.0899Z" fill="#EB804E"/>
</svg>
