<svg width="20" height="20" viewBox="0 0 20 20" fill="none" xmlns="http://www.w3.org/2000/svg">
<path d="M0.394018 16.3292C2.24568 17.5042 4.40068 18.125 6.62568 18.125C9.88402 18.125 12.8698 16.8733 15.034 14.6008C17.1048 12.4258 18.244 9.50333 18.1873 6.5375C18.9723 5.86583 19.8957 4.58333 19.8957 3.33333C19.8957 2.85417 19.3757 2.55 18.954 2.79417C18.2165 3.2275 17.544 3.34083 16.8523 3.14667C15.4398 1.77 13.3373 1.48 11.5657 2.435C10.0173 3.26833 9.15652 4.79333 9.23402 6.46C6.61818 6.14083 4.20152 4.82917 2.51652 2.79083C2.23985 2.45833 1.71485 2.4975 1.49485 2.87417C0.683185 4.26417 0.691518 5.875 1.39735 7.17583C1.06152 7.235 0.854018 7.5175 0.854018 7.82333C0.854018 9.13083 1.44235 10.3325 2.38985 11.1525C2.21318 11.3225 2.15485 11.575 2.22985 11.8C2.64652 13.0517 3.58985 14.03 4.76902 14.52C3.48652 15.1325 2.06818 15.3367 0.805684 15.1817C0.152351 15.0933 -0.170149 15.9717 0.394018 16.3292ZM6.79652 14.7342C7.26402 14.375 7.01568 13.6267 6.42902 13.6142C5.39568 13.5925 4.45485 13.0833 3.86902 12.2825C4.15152 12.2642 4.44402 12.2208 4.72235 12.1458C5.35652 11.9742 5.32652 11.0592 4.68235 10.93C3.51318 10.695 2.59568 9.84334 2.25152 8.74667C2.56568 8.82417 2.88568 8.8675 3.20485 8.87333C3.83735 8.87667 4.07652 8.06583 3.56068 7.72667C2.39818 6.96083 1.90235 5.60833 2.23068 4.33667C4.26068 6.39333 7.01485 7.6325 9.92818 7.7725C10.3457 7.79833 10.659 7.40583 10.5673 7.00833C10.1715 5.2925 11.1298 4.09 12.159 3.53583C13.1773 2.98583 14.8123 2.81417 16.0657 4.12917C16.4382 4.52167 17.6948 4.53667 18.334 4.3875C18.0473 4.9275 17.6065 5.44 17.194 5.72833C17.0182 5.85167 16.9173 6.05667 16.9282 6.27083C17.0623 9.00833 16.0423 11.73 14.1298 13.7375C12.2032 15.76 9.53902 16.8742 6.62652 16.8742C5.46818 16.8742 4.33235 16.6858 3.25902 16.3225C4.54235 16.0742 5.76152 15.5308 6.79652 14.7342Z" fill="white"/>
</svg>
